# Alias OBJ Model File
# Exported from SketchUp, (c) 2000-2012 Trimble Navigation Limited
# File units = meters

mtllib suelo 5.mtl

g Mesh1 Model

usemtl FrontColor
v 72 0 -72
vt -2834.65 2834.65
vn 0 -1 -0
v 72 0 -84
vt -2834.65 3307.09
v 84 0 -84
vt -3307.09 3307.09
v 84 0 -72
vt -3307.09 2834.65
f 1/1/1 2/2/1 3/3/1 4/4/1 

v 60 0 -72
vt -2362.2 2834.65
v 60 0 -84
vt -2362.2 3307.09
f 5/5/1 6/6/1 2/2/1 1/1/1 

vt -3307.09 0
vn -1 0 -0
vt -2834.65 0
v 60 5 -72
vt -2834.65 196.85
v 60 5 -84
vt -3307.09 196.85
f 6/7/2 5/8/2 7/9/2 8/10/2 

v 48 0 -72
vt -1889.76 2834.65
v 48 0 -84
vt -1889.76 3307.09
f 9/11/1 10/12/1 6/6/1 5/5/1 

v 36 0 -72
vt -1417.32 2834.65
v 36 0 -84
vt -1417.32 3307.09
f 11/13/1 12/14/1 10/12/1 9/11/1 

v 24 0 -72
vt -944.882 2834.65
v 24 0 -84
vt -944.882 3307.09
f 13/15/1 14/16/1 12/14/1 11/13/1 

v 12 0 -72
vt -472.441 2834.65
v 12 0 -84
vt -472.441 3307.09
f 15/17/1 16/18/1 14/16/1 13/15/1 

v 0 0 -72
vt 0 2834.65
v 0 0 -84
vt 0 3307.09
f 17/19/1 18/20/1 16/18/1 15/17/1 

v 0 5 -72
v 0 5 -84
f 18/7/2 17/8/2 19/9/2 20/10/2 

v 0 0 -60
vt -2362.2 0
v 0 5 -60
vt -2362.2 196.85
f 17/8/2 21/21/2 22/22/2 19/9/2 

vt 0 2362.2
v 12 0 -60
vt -472.441 2362.2
f 21/23/1 17/19/1 15/17/1 23/24/1 

vt 0 0
vn 0 0 1
vt 472.441 0
v 12 5 -72
vt 472.441 196.85
vt 0 196.85
f 17/25/3 15/26/3 24/27/3 19/28/3 

vt 944.882 0
v 24 5 -72
vt 944.882 196.85
f 15/26/3 13/29/3 25/30/3 24/27/3 

v 24 0 -60
vt -944.882 2362.2
f 23/24/1 15/17/1 13/15/1 26/31/1 

v 12 5 -60
f 15/8/2 23/21/2 27/22/2 24/9/2 

v 12 0 -48
vt -1889.76 0
v 12 5 -48
vt -1889.76 196.85
f 23/21/2 28/32/2 29/33/2 27/22/2 

v 0 0 -48
vt 0 1889.76
vt -472.441 1889.76
f 30/34/1 21/23/1 23/24/1 28/35/1 

v 0 5 -48
f 21/21/2 30/32/2 31/33/2 22/22/2 

v 0 0 -36
vt -1417.32 0
v 0 5 -36
vt -1417.32 196.85
f 30/32/2 32/36/2 33/37/2 31/33/2 

vt 0 1417.32
v 12 0 -36
vt -472.441 1417.32
f 32/38/1 30/34/1 28/35/1 34/39/1 

f 30/25/3 28/26/3 29/27/3 31/28/3 

v 12 5 -36
f 28/32/2 34/36/2 35/37/2 29/33/2 

v 24 0 -48
vt -944.882 1889.76
v 24 0 -36
vt -944.882 1417.32
f 34/39/1 28/35/1 36/40/1 37/41/1 

f 28/35/1 23/24/1 26/31/1 36/40/1 

v 24 5 -60
f 23/26/3 26/29/3 38/30/3 27/27/3 

v 24 5 -48
f 26/21/2 36/32/2 39/33/2 38/22/2 

v 36 0 -60
vt -1417.32 2362.2
v 36 0 -48
vt -1417.32 1889.76
f 36/40/1 26/31/1 40/42/1 41/43/1 

f 26/31/1 13/15/1 11/13/1 40/42/1 

f 13/8/2 26/21/2 38/22/2 25/9/2 

vt 1417.32 0
v 36 5 -60
vt 1417.32 196.85
f 26/29/3 40/44/3 42/45/3 38/30/3 

v 48 0 -60
vt 1889.76 0
v 48 5 -60
vt 1889.76 196.85
f 40/44/3 43/46/3 44/47/3 42/45/3 

vt -1889.76 2362.2
v 48 0 -48
vt -1889.76 1889.76
f 41/43/1 40/42/1 43/48/1 45/49/1 

v 36 5 -48
f 40/21/2 41/32/2 46/33/2 42/22/2 

v 48 5 -48
f 41/44/3 45/46/3 47/47/3 46/45/3 

v 36 0 -36
vt -1417.32 1417.32
v 48 0 -36
vt -1889.76 1417.32
f 48/50/1 41/43/1 45/49/1 49/51/1 

v 36 5 -36
f 41/32/2 48/36/2 50/37/2 46/33/2 

f 37/41/1 36/40/1 41/43/1 48/50/1 

v 24 5 -36
f 36/32/2 37/36/2 51/37/2 39/33/2 

f 34/26/3 37/29/3 51/30/3 35/27/3 

v 12 0 -24
vt -472.441 944.882
v 24 0 -24
vt -944.882 944.882
f 52/52/1 34/39/1 37/41/1 53/53/1 

v 0 0 -24
vt 0 944.882
f 54/54/1 32/38/1 34/39/1 52/52/1 

vt -944.882 0
v 0 5 -24
vt -944.882 196.85
f 32/36/2 54/55/2 55/56/2 33/37/2 

v 0 0 -12
vt -472.441 0
v 0 5 -12
vt -472.441 196.85
f 54/55/2 56/57/2 57/58/2 55/56/2 

vt 0 472.441
v 12 0 -12
vt -472.441 472.441
f 56/59/1 54/54/1 52/52/1 58/60/1 

v 12 5 -24
f 54/25/3 52/26/3 59/27/3 55/28/3 

v 12 5 -12
f 52/55/2 58/57/2 60/58/2 59/56/2 

v 24 0 -12
vt -944.882 472.441
f 58/60/1 52/52/1 53/53/1 61/61/1 

v 24 5 -24
f 52/26/3 53/29/3 62/30/3 59/27/3 

f 37/36/2 53/55/2 62/56/2 51/37/2 

v 36 0 -24
vt -1417.32 944.882
f 53/53/1 37/41/1 48/50/1 63/62/1 

f 37/29/3 48/44/3 50/45/3 51/30/3 

v 48 5 -36
f 48/44/3 49/46/3 64/47/3 50/45/3 

v 48 0 -24
vt -1889.76 944.882
f 63/62/1 48/50/1 49/51/1 65/63/1 

v 36 5 -24
f 48/36/2 63/55/2 66/56/2 50/37/2 

v 48 5 -24
f 63/44/3 65/46/3 67/47/3 66/45/3 

v 36 0 -12
vt -1417.32 472.441
v 48 0 -12
vt -1889.76 472.441
f 68/64/1 63/62/1 65/63/1 69/65/1 

v 36 5 -12
f 63/55/2 68/57/2 70/58/2 66/56/2 

f 61/61/1 53/53/1 63/62/1 68/64/1 

v 24 5 -12
f 53/55/2 61/57/2 71/58/2 62/56/2 

f 58/26/3 61/29/3 71/30/3 60/27/3 

v 12 0 -0
v 24 0 -0
f 72/57/1 58/60/1 61/61/1 73/55/1 

v 0 0 -0
f 74/25/1 56/59/1 58/60/1 72/57/1 

v 0 5 -0
f 56/57/2 74/25/2 75/28/2 57/58/2 

v 12 5 -0
f 74/25/3 72/26/3 76/27/3 75/28/3 

v 24 5 -0
f 72/26/3 73/29/3 77/30/3 76/27/3 

f 61/57/2 73/25/2 77/28/2 71/58/2 

v 36 0 -0
f 73/55/1 61/61/1 68/64/1 78/36/1 

f 61/29/3 68/44/3 70/45/3 71/30/3 

v 36 5 -0
f 68/57/2 78/25/2 79/28/2 70/58/2 

v 48 0 -0
f 78/36/1 68/64/1 69/65/1 80/32/1 

v 48 5 -12
f 68/44/3 69/46/3 81/47/3 70/45/3 

f 65/55/2 69/57/2 81/58/2 67/56/2 

v 60 0 -24
vt -2362.2 944.882
v 60 0 -12
vt -2362.2 472.441
f 69/65/1 65/63/1 82/66/1 83/67/1 

vt 2362.2 0
v 60 5 -24
vt 2362.2 196.85
f 65/46/3 82/68/3 84/69/3 67/47/3 

v 60 0 -36
vt -2362.2 1417.32
f 65/63/1 49/51/1 85/70/1 82/66/1 

f 49/36/2 65/55/2 67/56/2 64/37/2 

vt 1417.32 1417.32
vn 0 1 -0
vt 1417.32 944.882
vt 1889.76 944.882
vt 1889.76 1417.32
f 50/71/4 66/72/4 67/73/4 64/74/4 

vt 944.882 1417.32
vt 944.882 944.882
f 51/75/4 62/76/4 66/72/4 50/71/4 

vt 472.441 1417.32
vt 472.441 944.882
f 35/77/4 59/78/4 62/76/4 51/75/4 

f 33/38/4 55/54/4 59/78/4 35/77/4 

vt 472.441 472.441
f 55/54/4 57/59/4 60/79/4 59/78/4 

f 56/25/3 58/26/3 60/27/3 57/28/3 

f 58/57/2 72/25/2 76/28/2 60/58/2 

f 57/59/4 75/25/4 76/26/4 60/79/4 

vt 944.882 472.441
f 60/79/4 76/26/4 77/29/4 71/80/4 

vt 1417.32 472.441
f 71/80/4 77/29/4 79/44/4 70/81/4 

f 73/29/3 78/44/3 79/45/3 77/30/3 

v 48 5 -0
f 78/44/3 80/46/3 86/47/3 79/45/3 

v 60 0 -0
v 60 5 -0
f 80/46/3 87/68/3 88/69/3 86/47/3 

f 80/32/1 69/65/1 83/67/1 87/21/1 

f 69/57/2 80/25/2 86/28/2 81/58/2 

vt 1889.76 472.441
f 70/81/4 79/44/4 86/46/4 81/82/4 

v 60 5 -12
vt 2362.2 472.441
f 81/82/4 86/46/4 88/68/4 89/83/4 

f 83/57/2 87/25/2 88/28/2 89/58/2 

v 72 0 -12
vt -2834.65 472.441
v 72 0 -0
f 87/21/1 83/67/1 90/84/1 91/8/1 

v 72 0 -24
vt -2834.65 944.882
f 83/67/1 82/66/1 92/85/1 90/84/1 

f 82/55/2 83/57/2 89/58/2 84/56/2 

f 69/46/3 83/68/3 89/69/3 81/47/3 

vt 2834.65 0
v 72 5 -12
vt 2834.65 196.85
f 83/68/3 90/86/3 93/87/3 89/69/3 

v 72 5 -0
f 90/57/2 91/25/2 94/28/2 93/58/2 

v 84 0 -12
vt -3307.09 472.441
v 84 0 -0
f 91/8/1 90/84/1 95/88/1 96/7/1 

vt 3307.09 0
v 84 5 -12
vt 3307.09 196.85
f 90/86/3 95/89/3 97/90/3 93/87/3 

v 84 0 -24
vt -3307.09 944.882
f 90/84/1 92/85/1 98/91/1 95/88/1 

v 72 5 -24
f 92/55/2 90/57/2 93/58/2 99/56/2 

vt 2362.2 944.882
vt 2834.65 472.441
vt 2834.65 944.882
f 84/92/4 89/83/4 93/93/4 99/94/4 

f 67/73/4 81/82/4 89/83/4 84/92/4 

f 66/72/4 70/81/4 81/82/4 67/73/4 

f 62/76/4 71/80/4 70/81/4 66/72/4 

f 59/78/4 60/79/4 71/80/4 62/76/4 

f 53/29/3 63/44/3 66/45/3 62/30/3 

v 60 5 -36
vt 2362.2 1417.32
f 64/74/4 67/73/4 84/92/4 100/95/4 

v 72 5 -36
vt 2834.65 1417.32
f 100/95/4 84/92/4 99/94/4 101/96/4 

f 85/36/2 82/55/2 84/56/2 100/37/2 

v 72 0 -36
vt -2834.65 1417.32
f 82/66/1 85/70/1 102/97/1 92/85/1 

f 85/68/3 102/86/3 101/87/3 100/69/3 

v 60 0 -48
vt -2362.2 1889.76
v 72 0 -48
vt -2834.65 1889.76
f 85/70/1 103/98/1 104/99/1 102/97/1 

f 49/51/1 45/49/1 103/98/1 85/70/1 

f 45/32/2 49/36/2 64/37/2 47/33/2 

f 49/46/3 85/68/3 100/69/3 64/47/3 

v 60 5 -48
f 103/32/2 85/36/2 100/37/2 105/33/2 

vt 2362.2 1889.76
v 72 5 -48
vt 2834.65 1889.76
f 105/100/4 100/95/4 101/96/4 106/101/4 

vt 1889.76 1889.76
f 47/102/4 64/74/4 100/95/4 105/100/4 

vt 1417.32 1889.76
f 46/103/4 50/71/4 64/74/4 47/102/4 

vt 944.882 1889.76
f 39/104/4 51/75/4 50/71/4 46/103/4 

vt 472.441 1889.76
f 29/105/4 35/77/4 51/75/4 39/104/4 

f 31/34/4 33/38/4 35/77/4 29/105/4 

f 32/25/3 34/26/3 35/27/3 33/28/3 

f 34/36/2 52/55/2 59/56/2 35/37/2 

vt 472.441 2362.2
f 22/23/4 31/34/4 29/105/4 27/106/4 

vt 944.882 2362.2
f 27/106/4 29/105/4 39/104/4 38/107/4 

f 28/26/3 36/29/3 39/30/3 29/27/3 

f 36/29/3 41/44/3 46/45/3 39/30/3 

vt 1417.32 2362.2
f 38/107/4 39/104/4 46/103/4 42/108/4 

vt 1889.76 2362.2
f 42/108/4 46/103/4 47/102/4 44/109/4 

v 60 5 -60
vt 2362.2 2362.2
f 44/109/4 47/102/4 105/100/4 107/110/4 

f 43/21/2 45/32/2 47/33/2 44/22/2 

v 60 0 -60
vt -2362.2 2362.2
f 45/49/1 43/48/1 108/111/1 103/98/1 

f 43/48/1 9/11/1 5/5/1 108/111/1 

f 40/42/1 11/13/1 9/11/1 43/48/1 

v 36 5 -72
f 11/8/2 40/21/2 42/22/2 109/9/2 

vt 1417.32 2834.65
v 48 5 -72
vt 1889.76 2834.65
f 109/112/4 42/108/4 44/109/4 110/113/4 

vt 944.882 2834.65
f 25/114/4 38/107/4 42/108/4 109/112/4 

vt 472.441 2834.65
f 24/115/4 27/106/4 38/107/4 25/114/4 

f 19/19/4 22/23/4 27/106/4 24/115/4 

f 21/25/3 23/26/3 27/27/3 22/28/3 

v 12 5 -84
vt 472.441 3307.09
f 20/20/4 19/19/4 24/115/4 111/116/4 

v 24 5 -84
vt 944.882 3307.09
f 111/116/4 24/115/4 25/114/4 112/117/4 

f 16/7/2 15/8/2 24/9/2 111/10/2 

v 12 0 -96
vt -3779.53 0
v 12 5 -96
vt -3779.53 196.85
f 113/118/2 16/7/2 111/10/2 114/119/2 

v 0 0 -96
vt 0 3779.53
vt -472.441 3779.53
f 18/20/1 115/120/1 113/121/1 16/18/1 

v 0 5 -96
f 115/118/2 18/7/2 20/10/2 116/119/2 

f 18/25/3 16/26/3 111/27/3 20/28/3 

f 16/26/3 14/29/3 112/30/3 111/27/3 

v 24 0 -96
vt -944.882 3779.53
f 16/18/1 113/121/1 117/122/1 14/16/1 

v 12 0 -108
vt -472.441 4251.97
v 24 0 -108
vt -944.882 4251.97
f 113/121/1 118/123/1 119/124/1 117/122/1 

v 0 0 -108
vt 0 4251.97
f 115/120/1 120/125/1 118/123/1 113/121/1 

vt -4251.97 0
v 0 5 -108
vt -4251.97 196.85
f 120/126/2 115/118/2 116/119/2 121/127/2 

f 115/25/3 113/26/3 114/27/3 116/28/3 

v 24 5 -96
f 113/26/3 117/29/3 122/30/3 114/27/3 

f 117/118/2 14/7/2 112/10/2 122/119/2 

v 36 0 -96
vt -1417.32 3779.53
f 14/16/1 117/122/1 123/128/1 12/14/1 

v 36 5 -96
f 117/29/3 123/44/3 124/45/3 122/30/3 

v 36 0 -108
vt -1417.32 4251.97
f 117/122/1 119/124/1 125/129/1 123/128/1 

v 24 5 -108
f 119/126/2 117/118/2 122/119/2 126/127/2 

v 12 5 -108
vt 472.441 4251.97
vt 472.441 3779.53
vt 944.882 3779.53
vt 944.882 4251.97
f 127/130/4 114/131/4 122/132/4 126/133/4 

f 118/126/2 113/118/2 114/119/2 127/127/2 

f 121/125/4 116/120/4 114/131/4 127/130/4 

f 116/120/4 20/20/4 111/116/4 114/131/4 

f 114/131/4 111/116/4 112/117/4 122/132/4 

v 36 5 -84
vt 1417.32 3307.09
vt 1417.32 3779.53
f 122/132/4 112/117/4 128/134/4 124/135/4 

f 112/117/4 25/114/4 109/112/4 128/134/4 

f 14/7/2 13/8/2 25/9/2 112/10/2 

f 13/29/3 11/44/3 109/45/3 25/30/3 

f 11/44/3 9/46/3 110/47/3 109/45/3 

v 48 5 -84
f 10/7/2 9/8/2 110/9/2 129/10/2 

f 9/8/2 43/21/2 44/22/2 110/9/2 

f 43/46/3 108/68/3 107/69/3 44/47/3 

f 5/8/2 108/21/2 107/22/2 7/9/2 

v 72 0 -60
vt -2834.65 2362.2
f 108/111/1 5/5/1 1/1/1 130/136/1 

v 72 5 -72
f 5/68/3 1/86/3 131/87/3 7/69/3 

v 72 5 -60
f 1/8/2 130/21/2 132/22/2 131/9/2 

v 84 0 -60
vt -3307.09 2362.2
f 130/136/1 1/1/1 4/4/1 133/137/1 

v 84 5 -72
f 1/86/3 4/89/3 134/90/3 131/87/3 

v 84 5 -60
f 4/8/2 133/21/2 135/22/2 134/9/2 

v 96 0 -72
vt -3779.53 2834.65
v 96 0 -60
vt -3779.53 2362.2
f 133/137/1 4/4/1 136/138/1 137/139/1 

vt 3779.53 0
v 96 5 -72
vt 3779.53 196.85
f 4/89/3 136/140/3 138/141/3 134/90/3 

v 96 0 -84
vt -3779.53 3307.09
f 4/4/1 3/3/1 139/142/1 136/138/1 

v 84 5 -84
f 3/7/2 4/8/2 134/9/2 140/10/2 

v 72 5 -84
vt 2834.65 3307.09
vt 2834.65 2834.65
vt 3307.09 2834.65
vt 3307.09 3307.09
f 141/143/4 131/144/4 134/145/4 140/146/4 

vt 2362.2 3307.09
vt 2362.2 2834.65
f 8/147/4 7/148/4 131/144/4 141/143/4 

vt 1889.76 3307.09
f 129/149/4 110/113/4 7/148/4 8/147/4 

f 128/134/4 109/112/4 110/113/4 129/149/4 

f 12/7/2 11/8/2 109/9/2 128/10/2 

f 12/44/3 10/46/3 129/47/3 128/45/3 

v 48 0 -96
vt -1889.76 3779.53
f 12/14/1 123/128/1 142/150/1 10/12/1 

f 123/118/2 12/7/2 128/10/2 124/119/2 

f 14/29/3 12/44/3 128/45/3 112/30/3 

v 48 5 -96
vt 1889.76 3779.53
f 124/135/4 128/134/4 129/149/4 143/151/4 

v 60 5 -96
vt 2362.2 3779.53
f 143/151/4 129/149/4 8/147/4 144/152/4 

f 142/118/2 10/7/2 129/10/2 143/119/2 

v 60 0 -96
vt -2362.2 3779.53
f 10/12/1 142/150/1 145/153/1 6/6/1 

f 142/46/3 145/68/3 144/69/3 143/47/3 

v 48 0 -108
vt -1889.76 4251.97
v 60 0 -108
vt -2362.2 4251.97
f 142/150/1 146/154/1 147/155/1 145/153/1 

f 123/128/1 125/129/1 146/154/1 142/150/1 

v 36 5 -108
f 125/126/2 123/118/2 124/119/2 148/127/2 

f 123/44/3 142/46/3 143/47/3 124/45/3 

v 48 5 -108
f 146/126/2 142/118/2 143/119/2 149/127/2 

vt 1417.32 4251.97
vt 1889.76 4251.97
f 148/156/4 124/135/4 143/151/4 149/157/4 

f 126/133/4 122/132/4 124/135/4 148/156/4 

vn 0 0 -1
f 125/36/5 119/55/5 126/56/5 148/37/5 

f 119/55/5 118/57/5 127/58/5 126/56/5 

f 118/57/5 120/25/5 121/28/5 127/58/5 

f 146/32/5 125/36/5 148/37/5 149/33/5 

v 60 5 -108
f 147/21/5 146/32/5 149/33/5 150/22/5 

vt 2362.2 4251.97
f 149/157/4 143/151/4 144/152/4 150/158/4 

v 72 5 -96
vt 2834.65 3779.53
v 72 5 -108
vt 2834.65 4251.97
f 150/158/4 144/152/4 151/159/4 152/160/4 

f 147/126/2 145/118/2 144/119/2 150/127/2 

v 72 0 -108
vt -2834.65 4251.97
v 72 0 -96
vt -2834.65 3779.53
f 145/153/1 147/155/1 153/161/1 154/162/1 

f 153/8/5 147/21/5 150/22/5 152/9/5 

f 153/126/2 154/118/2 151/119/2 152/127/2 

v 84 0 -108
vt -3307.09 4251.97
v 84 0 -96
vt -3307.09 3779.53
f 154/162/1 153/161/1 155/163/1 156/164/1 

v 84 5 -108
f 155/7/5 153/8/5 152/9/5 157/10/5 

v 84 5 -96
vt 3307.09 3779.53
vt 3307.09 4251.97
f 152/160/4 151/159/4 158/165/4 157/166/4 

f 151/159/4 141/143/4 140/146/4 158/165/4 

f 154/118/2 2/7/2 141/10/2 151/119/2 

f 2/2/1 154/162/1 156/164/1 3/3/1 

f 6/6/1 145/153/1 154/162/1 2/2/1 

f 145/118/2 6/7/2 8/10/2 144/119/2 

f 6/68/3 2/86/3 141/87/3 8/69/3 

f 2/86/3 3/89/3 140/90/3 141/87/3 

v 96 5 -84
f 3/89/3 139/140/3 159/141/3 140/90/3 

v 96 0 -96
vt -3779.53 3779.53
f 3/3/1 156/164/1 160/167/1 139/142/1 

f 156/118/2 3/7/2 140/10/2 158/119/2 

vt 3779.53 3307.09
v 96 5 -96
vt 3779.53 3779.53
f 158/165/4 140/146/4 159/168/4 161/169/4 

vt 3779.53 2834.65
f 140/146/4 134/145/4 138/170/4 159/168/4 

vt 3307.09 2362.2
v 96 5 -60
vt 3779.53 2362.2
f 134/145/4 135/171/4 162/172/4 138/170/4 

vt 2834.65 2362.2
f 131/144/4 132/173/4 135/171/4 134/145/4 

f 7/148/4 107/110/4 132/173/4 131/144/4 

f 110/113/4 44/109/4 107/110/4 7/148/4 

f 9/46/3 5/68/3 7/69/3 110/47/3 

f 107/110/4 105/100/4 106/101/4 132/173/4 

f 108/21/2 103/32/2 105/33/2 107/22/2 

f 103/98/1 108/111/1 130/136/1 104/99/1 

f 108/68/3 130/86/3 132/87/3 107/69/3 

f 130/86/3 133/89/3 135/90/3 132/87/3 

v 84 0 -48
vt -3307.09 1889.76
f 104/99/1 130/136/1 133/137/1 163/174/1 

f 130/21/2 104/32/2 106/33/2 132/22/2 

f 103/68/3 104/86/3 106/87/3 105/69/3 

v 84 5 -48
f 104/86/3 163/89/3 164/90/3 106/87/3 

v 84 0 -36
vt -3307.09 1417.32
f 102/97/1 104/99/1 163/174/1 165/175/1 

f 104/32/2 102/36/2 101/37/2 106/33/2 

f 102/36/2 92/55/2 99/56/2 101/37/2 

f 92/85/1 102/97/1 165/175/1 98/91/1 

v 84 5 -36
f 102/86/3 165/89/3 166/90/3 101/87/3 

v 84 5 -24
f 165/36/2 98/55/2 167/56/2 166/37/2 

v 96 0 -36
vt -3779.53 1417.32
v 96 0 -24
vt -3779.53 944.882
f 98/91/1 165/175/1 168/176/1 169/177/1 

v 96 0 -48
vt -3779.53 1889.76
f 165/175/1 163/174/1 170/178/1 168/176/1 

f 163/32/2 165/36/2 166/37/2 164/33/2 

v 96 5 -36
f 165/89/3 168/140/3 171/141/3 166/90/3 

v 96 5 -24
f 168/36/2 169/55/2 172/56/2 171/37/2 

v 108 0 -36
vt -4251.97 1417.32
v 108 0 -24
vt -4251.97 944.882
f 169/177/1 168/176/1 173/179/1 174/180/1 

v 108 0 -48
vt -4251.97 1889.76
f 168/176/1 170/178/1 175/181/1 173/179/1 

v 96 5 -48
f 170/32/2 168/36/2 171/37/2 176/33/2 

vt 4251.97 0
v 108 5 -36
vt 4251.97 196.85
f 168/140/3 173/182/3 177/183/3 171/141/3 

vn 1 0 -0
v 108 5 -48
f 173/44/6 175/46/6 178/47/6 177/45/6 

v 108 0 -60
v 108 5 -60
f 175/46/6 179/68/6 180/69/6 178/47/6 

vt -4251.97 2362.2
f 170/178/1 137/139/1 179/184/1 175/181/1 

f 163/174/1 133/137/1 137/139/1 170/178/1 

f 133/21/2 163/32/2 164/33/2 135/22/2 

f 163/89/3 170/140/3 176/141/3 164/90/3 

f 137/21/2 170/32/2 176/33/2 162/22/2 

f 170/140/3 175/182/3 178/183/3 176/141/3 

vt 3779.53 1889.76
vt 3779.53 1417.32
vt 4251.97 1417.32
vt 4251.97 1889.76
f 176/185/4 171/186/4 177/187/4 178/188/4 

vt 3307.09 1889.76
vt 3307.09 1417.32
f 164/189/4 166/190/4 171/186/4 176/185/4 

f 106/101/4 101/96/4 166/190/4 164/189/4 

vt 3307.09 944.882
f 101/96/4 99/94/4 167/191/4 166/190/4 

f 92/86/3 98/89/3 167/90/3 99/87/3 

f 98/89/3 169/140/3 172/141/3 167/90/3 

v 96 0 -12
vt -3779.53 472.441
f 95/88/1 98/91/1 169/177/1 181/192/1 

f 98/55/2 95/57/2 97/58/2 167/56/2 

v 96 5 -12
f 95/89/3 181/140/3 182/141/3 97/90/3 

v 96 0 -0
f 96/7/1 95/88/1 181/192/1 183/118/1 

v 84 5 -0
f 95/57/2 96/25/2 184/28/2 97/58/2 

v 96 5 -0
f 96/89/3 183/140/3 185/141/3 184/90/3 

v 108 0 -0
v 108 5 -0
f 183/140/3 186/182/3 187/183/3 185/141/3 

v 108 0 -12
vt -4251.97 472.441
f 183/118/1 181/192/1 188/193/1 186/126/1 

f 181/57/2 183/25/2 185/28/2 182/58/2 

vt 3779.53 472.441
v 108 5 -12
vt 4251.97 472.441
f 182/194/4 185/140/4 187/182/4 189/195/4 

vt 3307.09 472.441
f 97/196/4 184/89/4 185/140/4 182/194/4 

f 93/93/4 94/86/4 184/89/4 97/196/4 

f 89/83/4 88/68/4 94/86/4 93/93/4 

f 87/68/3 91/86/3 94/87/3 88/69/3 

f 91/86/3 96/89/3 184/90/3 94/87/3 

f 99/94/4 93/93/4 97/196/4 167/191/4 

vt 3779.53 944.882
f 167/191/4 97/196/4 182/194/4 172/197/4 

v 108 5 -24
vt 4251.97 944.882
f 172/197/4 182/194/4 189/195/4 190/198/4 

f 169/55/2 181/57/2 182/58/2 172/56/2 

f 181/192/1 169/177/1 174/180/1 188/193/1 

f 169/140/3 174/182/3 190/183/3 172/141/3 

f 174/29/6 173/44/6 177/45/6 190/30/6 

f 171/186/4 172/197/4 190/198/4 177/187/4 

f 166/190/4 167/191/4 172/197/4 171/186/4 

f 188/26/6 174/29/6 190/30/6 189/27/6 

f 181/140/3 188/182/3 189/183/3 182/141/3 

f 186/25/6 188/26/6 189/27/6 187/28/6 

f 82/68/3 92/86/3 99/87/3 84/69/3 

f 132/173/4 106/101/4 164/189/4 135/171/4 

f 135/171/4 164/189/4 176/185/4 162/172/4 

vt 4251.97 2362.2
f 162/172/4 176/185/4 178/188/4 180/199/4 

v 108 5 -72
vt 4251.97 2834.65
f 138/170/4 162/172/4 180/199/4 191/200/4 

f 136/8/2 137/21/2 162/22/2 138/9/2 

v 108 0 -72
vt -4251.97 2834.65
f 137/139/1 136/138/1 192/201/1 179/184/1 

v 108 0 -84
vt -4251.97 3307.09
f 136/138/1 139/142/1 193/202/1 192/201/1 

f 139/7/2 136/8/2 138/9/2 159/10/2 

f 136/140/3 192/182/3 191/183/3 138/141/3 

f 179/68/6 192/86/6 191/87/6 180/69/6 

v 108 5 -84
f 192/86/6 193/89/6 194/90/6 191/87/6 

f 139/140/3 193/182/3 194/183/3 159/141/3 

v 108 0 -96
vt -4251.97 3779.53
f 139/142/1 160/167/1 195/203/1 193/202/1 

f 160/118/2 139/7/2 159/10/2 161/119/2 

vt 4251.97 3307.09
v 108 5 -96
vt 4251.97 3779.53
f 161/169/4 159/168/4 194/204/4 196/205/4 

f 159/168/4 138/170/4 191/200/4 194/204/4 

f 193/89/6 195/140/6 196/141/6 194/90/6 

v 108 0 -108
v 108 5 -108
f 195/140/6 197/182/6 198/183/6 196/141/6 

v 96 0 -108
vt -3779.53 4251.97
vt -4251.97 4251.97
f 160/167/1 199/206/1 197/207/1 195/203/1 

f 156/164/1 155/163/1 199/206/1 160/167/1 

f 155/126/2 156/118/2 158/119/2 157/127/2 

f 154/86/3 156/89/3 158/90/3 151/87/3 

f 156/89/3 160/140/3 161/141/3 158/90/3 

v 96 5 -108
f 199/126/2 160/118/2 161/119/2 200/127/2 

f 160/140/3 195/182/3 196/183/3 161/141/3 

vt 3779.53 4251.97
vt 4251.97 4251.97
f 200/208/4 161/169/4 196/205/4 198/209/4 

f 157/166/4 158/165/4 161/169/4 200/208/4 

f 199/118/5 155/7/5 157/10/5 200/119/5 

f 197/126/5 199/118/5 200/119/5 198/127/5 

f 145/68/3 154/86/3 151/87/3 144/69/3 

f 144/152/4 8/147/4 141/143/4 151/159/4 

f 137/140/3 179/182/3 180/183/3 162/141/3 

f 133/89/3 137/140/3 162/141/3 135/90/3 

f 45/46/3 103/68/3 105/69/3 47/47/3 

f 2/7/2 1/8/2 131/9/2 141/10/2 

f 10/46/3 6/68/3 8/69/3 129/47/3 

